<svg width="263" height="81" viewBox="0 0 263 81" fill="none" xmlns="http://www.w3.org/2000/svg">
<circle cx="13.6261" cy="67.8597" r="13.0284" fill="#006A4E"/>
<path fill-rule="evenodd" clip-rule="evenodd" d="M54.0159 40.5C54.0159 47.6954 48.1829 53.5284 40.9875 53.5284C40.9872 53.5284 40.987 53.5284 40.9868 53.5284H14.9299V53.464C14.5011 53.5066 14.0661 53.5285 13.6261 53.5285C6.43069 53.5285 0.597656 47.6954 0.597656 40.5C0.597656 33.3046 6.43069 27.4716 13.6261 27.4716C14.0661 27.4716 14.5011 27.4934 14.9299 27.536V27.4716H40.9868C40.987 27.4716 40.9872 27.4716 40.9875 27.4716C48.1829 27.4716 54.0159 33.3046 54.0159 40.5Z" fill="#006A4E"/>
<path fill-rule="evenodd" clip-rule="evenodd" d="M53.971 61.2603C53.971 57.6626 51.0545 54.746 47.4568 54.746C43.8591 54.746 40.9426 57.6626 40.9426 61.2603C40.9426 64.858 38.026 67.7745 34.4283 67.7745C30.8306 67.7745 27.9141 70.691 27.9141 74.2888C27.9141 77.8865 30.8306 80.803 34.4283 80.803H40.9426C48.138 80.803 53.971 74.97 53.971 67.7745V61.2603Z" fill="#006A4E"/>
<path fill-rule="evenodd" clip-rule="evenodd" d="M13.6261 26.1687C20.8215 26.1687 26.6545 20.3357 26.6545 13.1403C26.6545 5.94485 20.8215 0.111816 13.6261 0.111816C6.43069 0.111816 0.597656 5.94485 0.597656 13.1403C0.597656 20.3357 6.43069 26.1687 13.6261 26.1687ZM13.6276 17.8094C16.2063 17.8094 18.2967 15.719 18.2967 13.1403C18.2967 10.5616 16.2063 8.47116 13.6276 8.47116C11.0489 8.47116 8.95845 10.5616 8.95845 13.1403C8.95845 15.719 11.0489 17.8094 13.6276 17.8094Z" fill="#006A4E"/>
<path fill-rule="evenodd" clip-rule="evenodd" d="M40.9425 26.1687C48.1379 26.1687 53.9709 20.3357 53.9709 13.1403C53.9709 5.94485 48.1379 0.111816 40.9425 0.111816C33.7471 0.111816 27.9141 5.94485 27.9141 13.1403C27.9141 20.3357 33.7471 26.1687 40.9425 26.1687ZM40.944 17.8094C43.5227 17.8094 45.6131 15.719 45.6131 13.1403C45.6131 10.5616 43.5227 8.47116 40.944 8.47116C38.3653 8.47116 36.2749 10.5616 36.2749 13.1403C36.2749 15.719 38.3653 17.8094 40.944 17.8094Z" fill="#006A4E"/>
<path d="M88.9296 55.5812C89.2816 55.5812 89.5524 55.7573 89.742 56.1093C89.9316 56.4614 90.0263 56.9082 90.0263 57.4498C90.0263 58.1268 89.9316 58.6549 89.742 59.034C89.5524 59.3861 89.2545 59.6298 88.8483 59.7652C87.2235 60.3339 85.4362 60.6589 83.4863 60.7401C82.9447 62.9878 81.9157 64.8022 80.3991 66.1833C78.9097 67.5644 77.2578 68.255 75.4434 68.255C72.7082 68.255 70.7178 67.2124 69.4721 65.1272C68.2264 63.042 67.6035 60.0225 67.6035 56.0687C67.6035 52.5753 68.0368 48.784 68.9034 44.6948C69.77 40.5785 71.0292 37.0851 72.6811 34.2146C74.3602 31.3169 76.3506 29.8681 78.6524 29.8681C79.8982 29.8681 80.9001 30.4097 81.6584 31.4929C82.4167 32.5491 82.7958 33.9302 82.7958 35.6363C82.7958 37.8569 82.376 40.064 81.5365 42.2575C80.697 44.4511 79.3024 46.7529 77.3526 49.1631C79.167 49.2985 80.6429 50.0568 81.7803 51.4379C82.9177 52.7919 83.5947 54.4709 83.8113 56.4749C85.0841 56.3937 86.6006 56.1228 88.3609 55.6625C88.5234 55.6083 88.7129 55.5812 88.9296 55.5812ZM77.7182 33.8896C77.1765 33.8896 76.5808 34.702 75.9308 36.3269C75.308 37.9246 74.7257 40.1046 74.1841 42.8668C73.6425 45.6291 73.2363 48.6486 72.9655 51.9253C74.7528 48.6486 76.1746 45.7645 77.2307 43.2731C78.3139 40.7545 78.8555 38.5204 78.8555 36.5706C78.8555 35.704 78.7472 35.0405 78.5306 34.5801C78.341 34.1198 78.0702 33.8896 77.7182 33.8896ZM75.6059 63.9492C76.4454 63.9492 77.1901 63.5971 77.84 62.893C78.49 62.1889 78.9232 61.1734 79.1399 59.8464C78.3004 59.2777 77.6505 58.533 77.1901 57.6123C76.7568 56.6915 76.5401 55.7166 76.5401 54.6876C76.5401 54.3084 76.5943 53.7939 76.7026 53.144H76.5808C75.4705 53.144 74.5362 53.6991 73.7779 54.8094C73.0467 55.8927 72.6811 57.355 72.6811 59.1965C72.6811 60.7401 72.9655 61.9181 73.5342 62.7305C74.13 63.543 74.8205 63.9492 75.6059 63.9492Z" fill="#006A4E"/>
<path d="M91.8403 46.4415C90.7029 46.4415 89.8499 46.1842 89.2812 45.6697C88.7125 45.1281 88.4282 44.3834 88.4282 43.4355C88.4282 42.4877 88.7937 41.7024 89.5249 41.0795C90.2832 40.4296 91.2175 40.1046 92.3278 40.1046C93.3298 40.1046 94.1422 40.3483 94.765 40.8358C95.3879 41.3232 95.6993 42.0138 95.6993 42.9075C95.6993 43.9907 95.3473 44.8573 94.6432 45.5072C93.9391 46.1301 93.0048 46.4415 91.8403 46.4415ZM91.5154 68.255C89.7551 68.255 88.4688 67.6321 87.6564 66.3864C86.871 65.1407 86.4783 63.4888 86.4783 61.4307C86.4783 60.212 86.6273 58.6549 86.9252 56.7592C87.2501 54.8365 87.6564 53.0492 88.1438 51.3973C88.3875 50.5307 88.7125 49.9349 89.1187 49.6099C89.5249 49.285 90.1749 49.1225 91.0685 49.1225C92.4496 49.1225 93.1402 49.5829 93.1402 50.5036C93.1402 51.1806 92.8829 52.7513 92.3684 55.2156C91.7185 58.1945 91.3935 60.212 91.3935 61.2682C91.3935 62.0806 91.5018 62.7035 91.7185 63.1367C91.9351 63.57 92.3007 63.7867 92.8152 63.7867C93.3027 63.7867 93.912 63.4482 94.6432 62.7712C95.3744 62.0941 96.3493 61.0245 97.5679 59.5621C97.8929 59.183 98.2584 58.9934 98.6647 58.9934C99.0167 58.9934 99.2875 59.1559 99.4771 59.4809C99.6937 59.8058 99.802 60.2527 99.802 60.8213C99.802 61.9046 99.5448 62.7441 99.0302 63.3399C96.3493 66.6166 93.8443 68.255 91.5154 68.255Z" fill="#006A4E"/>
<path d="M114.633 58.9934C114.985 58.9934 115.255 59.1559 115.445 59.4809C115.662 59.8058 115.77 60.2527 115.77 60.8213C115.77 61.9046 115.513 62.7441 114.998 63.3399C113.834 64.7751 112.561 65.9531 111.18 66.8739C109.799 67.7946 108.214 68.255 106.427 68.255C100.903 68.255 98.1404 64.3689 98.1404 56.5968C98.1404 55.4052 98.181 54.2001 98.2623 52.9815H96.678C95.8656 52.9815 95.3105 52.8325 95.0126 52.5347C94.7418 52.2368 94.6064 51.7629 94.6064 51.1129C94.6064 49.5964 95.2157 48.8381 96.4343 48.8381H98.7497C99.2101 45.8593 99.9142 43.1376 100.862 40.6733C101.81 38.209 102.947 36.2456 104.274 34.7832C105.628 33.3209 107.077 32.5897 108.621 32.5897C109.758 32.5897 110.652 33.0907 111.302 34.0927C111.952 35.0947 112.277 36.3539 112.277 37.8705C112.277 42.068 110.516 45.7239 106.996 48.8381H111.545C111.979 48.8381 112.29 48.9329 112.48 49.1225C112.669 49.312 112.764 49.6641 112.764 50.1786C112.764 52.0472 111.234 52.9815 108.174 52.9815H103.218C103.164 54.3355 103.137 55.3917 103.137 56.1499C103.137 58.9663 103.462 60.9432 104.112 62.0806C104.789 63.218 105.845 63.7867 107.28 63.7867C108.445 63.7867 109.474 63.4346 110.367 62.7305C111.261 62.0264 112.317 60.9703 113.536 59.5621C113.861 59.183 114.226 58.9934 114.633 58.9934ZM107.524 36.4893C107.118 36.4893 106.657 37.0039 106.143 38.0329C105.655 39.0349 105.181 40.4431 104.721 42.2575C104.288 44.0449 103.922 46.0353 103.624 48.2288C105.222 46.8477 106.414 45.3041 107.199 43.598C108.011 41.8649 108.418 40.2942 108.418 38.886C108.418 37.2882 108.12 36.4893 107.524 36.4893Z" fill="#006A4E"/>
<path d="M120.018 69.1487C118.61 69.1487 117.527 68.8237 116.768 68.1738C116.037 67.5238 115.672 66.7926 115.672 65.9802C115.672 65.2761 115.929 64.6668 116.443 64.1523C116.958 63.6377 117.716 63.3805 118.718 63.3805C119.07 63.3805 119.476 63.4211 119.937 63.5023C120.424 63.5565 120.79 63.5971 121.034 63.6242C121.006 62.9201 120.844 62.2566 120.546 61.6338C120.275 61.0109 119.923 60.4151 119.49 59.8464C119.057 59.2507 118.65 58.7361 118.271 58.3028C117.432 59.9006 116.592 61.2276 115.753 62.2837C114.94 63.3399 114.047 64.3418 113.072 65.2897C112.584 65.7771 112.07 66.0208 111.528 66.0208C111.095 66.0208 110.743 65.8719 110.472 65.574C110.201 65.249 110.066 64.8564 110.066 64.396C110.066 63.8544 110.255 63.3534 110.635 62.893L111.163 62.2431C112.652 60.4016 113.776 58.8851 114.534 57.6935C114.995 56.9082 115.536 55.8656 116.159 54.5657C116.782 53.2388 117.391 51.8712 117.987 50.463C118.501 49.2714 119.571 48.6756 121.196 48.6756C121.954 48.6756 122.482 48.7434 122.78 48.8788C123.078 49.0142 123.227 49.2308 123.227 49.5287C123.227 49.6912 123.173 49.9484 123.065 50.3005C122.956 50.6525 122.807 51.0046 122.618 51.3566C122.13 52.3315 121.887 53.1575 121.887 53.8345C121.887 54.2407 122.022 54.6876 122.293 55.175C122.591 55.6625 123.038 56.2718 123.633 57.003C124.5 58.1404 125.15 59.1153 125.583 59.9277C126.043 60.713 126.274 61.5796 126.274 62.5274C126.274 62.7982 126.247 63.1774 126.192 63.6648C127.519 63.1503 129.076 61.7827 130.864 59.5621C131.189 59.183 131.554 58.9934 131.961 58.9934C132.313 58.9934 132.583 59.1559 132.773 59.4809C132.99 59.8058 133.098 60.2527 133.098 60.8213C133.098 61.8504 132.841 62.6899 132.326 63.3399C130.972 65.0189 129.672 66.1698 128.427 66.7926C127.208 67.3884 125.691 67.7134 123.877 67.7675C122.794 68.6883 121.507 69.1487 120.018 69.1487Z" fill="#006A4E"/>
<path d="M159.501 58.9934C159.853 58.9934 160.124 59.1559 160.314 59.4809C160.53 59.8058 160.639 60.2527 160.639 60.8213C160.639 61.9046 160.381 62.7441 159.867 63.3399C158.702 64.7751 157.43 65.9531 156.049 66.8739C154.695 67.7946 153.151 68.255 151.418 68.255C149.576 68.255 148.1 67.5915 146.99 66.2646C145.88 64.9105 145.121 63.0826 144.715 60.7807C143.795 61.0245 142.82 61.1463 141.791 61.1463C140.897 61.1463 139.908 61.0786 138.825 60.9432C139.204 62.6493 139.516 64.5585 139.76 66.6708C140.003 68.7831 140.125 70.5162 140.125 71.8703C140.125 74.795 139.651 77.0291 138.703 78.5727C137.756 80.1163 136.51 80.8881 134.966 80.8881C133.016 80.8881 131.622 79.507 130.782 76.7448C129.97 73.9826 129.564 69.8121 129.564 64.2335C129.564 59.034 130.119 53.7668 131.229 48.4319C132.366 43.0699 133.91 38.6423 135.86 35.1488C137.837 31.6283 140.003 29.8681 142.359 29.8681C143.632 29.8681 144.621 30.4368 145.325 31.5742C146.056 32.7116 146.421 34.2416 146.421 36.1644C146.421 42.5283 142.617 49.461 135.007 56.9623C134.736 59.6163 134.601 61.9452 134.601 63.9492C134.601 66.7385 134.695 69.5955 134.885 72.5202C135.075 75.472 135.386 76.9479 135.819 76.9479C136.632 76.9479 137.038 75.5397 137.038 72.7233C137.038 70.611 136.889 68.5664 136.591 66.5895C136.32 64.6126 135.941 62.5274 135.454 60.3339C135.427 59.9818 135.535 59.535 135.779 58.9934C136.049 58.4518 136.374 57.9779 136.754 57.5717C137.133 57.1655 137.471 56.9623 137.769 56.9623C138.121 56.9623 138.676 56.9894 139.435 57.0436C140.301 57.0977 140.951 57.1248 141.384 57.1248C142.359 57.1248 143.361 56.9894 144.39 56.7186V56.5968C144.39 53.2929 144.81 49.5287 145.65 45.3041C146.516 41.0795 147.775 37.4507 149.427 34.4177C151.106 31.3846 153.097 29.8681 155.399 29.8681C156.698 29.8681 157.714 30.4774 158.445 31.6961C159.203 32.8876 159.583 34.6072 159.583 36.8549C159.583 39.0485 159.176 41.5399 158.364 44.3292C157.552 47.1185 156.374 49.7995 154.83 52.3722C153.286 54.9178 151.472 56.9623 149.387 58.5059C149.495 60.4287 149.779 61.7963 150.24 62.6087C150.7 63.394 151.377 63.7867 152.271 63.7867C153.381 63.7867 154.356 63.4753 155.196 62.8524C156.035 62.2025 157.105 61.1057 158.405 59.5621C158.73 59.183 159.095 58.9934 159.501 58.9934ZM141.506 33.8896C141.019 33.8896 140.409 34.7155 139.678 36.3675C138.974 38.0194 138.27 40.2129 137.566 42.9481C136.862 45.6562 136.253 48.5267 135.738 51.5597C137.904 49.0954 139.57 46.5363 140.734 43.8824C141.899 41.2014 142.495 38.6964 142.522 36.3675C142.522 34.7155 142.183 33.8896 141.506 33.8896ZM154.505 33.8896C153.936 33.8896 153.273 34.9051 152.515 36.9362C151.783 38.9401 151.12 41.4857 150.524 44.5729C149.928 47.6601 149.563 50.6796 149.427 53.6314C150.781 52.2503 151.932 50.5713 152.88 48.5944C153.828 46.5904 154.519 44.5729 154.952 42.5419C155.412 40.4837 155.642 38.6287 155.642 36.9768C155.642 34.9187 155.263 33.8896 154.505 33.8896Z" fill="#006A4E"/>
<path d="M178.085 55.5812C178.437 55.5812 178.707 55.7573 178.897 56.1093C179.087 56.4614 179.181 56.9082 179.181 57.4498C179.181 58.7497 178.789 59.5215 178.003 59.7652C176.378 60.3339 174.591 60.6589 172.641 60.7401C172.127 63.0149 171.111 64.8428 169.595 66.2239C168.078 67.578 166.359 68.255 164.436 68.255C162.811 68.255 161.416 67.8623 160.252 67.077C159.114 66.2916 158.248 65.249 157.652 63.9492C157.056 62.6493 156.758 61.2411 156.758 59.7246C156.758 57.6664 157.151 55.8385 157.936 54.2407C158.722 52.6159 159.805 51.3566 161.186 50.463C162.567 49.5422 164.097 49.0819 165.776 49.0819C167.834 49.0819 169.486 49.7995 170.732 51.2348C172.005 52.643 172.75 54.3897 172.966 56.4749C174.239 56.3937 175.756 56.1228 177.516 55.6625C177.732 55.6083 177.922 55.5812 178.085 55.5812ZM164.761 63.9492C165.627 63.9492 166.372 63.5971 166.995 62.893C167.645 62.1889 168.078 61.1734 168.295 59.8464C167.455 59.2777 166.805 58.533 166.345 57.6123C165.912 56.6915 165.695 55.7166 165.695 54.6876C165.695 54.2543 165.736 53.821 165.817 53.3877H165.614C164.531 53.3877 163.623 53.9158 162.892 54.9719C162.188 56.001 161.836 57.4633 161.836 59.359C161.836 60.8484 162.12 61.9858 162.689 62.7712C163.285 63.5565 163.975 63.9492 164.761 63.9492Z" fill="#006A4E"/>
<path d="M200.424 49.0819C201.913 49.0819 202.658 49.5558 202.658 50.5036C202.658 50.8286 202.549 51.2754 202.333 51.8441C200.139 56.9623 198.068 61.0922 196.118 64.2335C195.143 65.7771 194.263 66.8333 193.477 67.402C192.692 67.9707 191.798 68.255 190.796 68.255C189.713 68.255 188.901 67.8352 188.359 66.9957C187.845 66.1562 187.52 64.7751 187.384 62.8524C187.33 62.1483 187.276 61.0922 187.222 59.684C186.382 62.0129 185.61 63.8002 184.906 65.0459C184.229 66.2646 183.552 67.1041 182.875 67.5644C182.225 68.0248 181.44 68.255 180.519 68.255C179.409 68.255 178.529 67.8217 177.879 66.9551C177.256 66.0885 176.863 64.721 176.701 62.8524C176.376 59.0611 176.213 55.7437 176.213 52.9002V51.4785C176.24 50.5578 176.471 49.9349 176.904 49.6099C177.337 49.2579 178.041 49.0819 179.016 49.0819C179.72 49.0819 180.235 49.2443 180.56 49.5693C180.912 49.8672 181.088 50.3817 181.088 51.1129C181.088 54.2272 181.278 58.2758 181.657 63.2586C182.55 61.363 183.376 59.5486 184.135 57.8154C184.893 56.0822 185.773 53.8616 186.775 51.1535C187.073 50.3411 187.425 49.7995 187.831 49.5287C188.264 49.2308 188.765 49.0819 189.334 49.0819C190.092 49.0819 190.661 49.2443 191.04 49.5693C191.419 49.8672 191.609 50.3817 191.609 51.1129V57.4092C191.609 60.1172 191.622 62.0671 191.649 63.2586C192.895 61.0922 193.911 59.21 194.696 57.6123C195.508 56.0145 196.416 53.8616 197.418 51.1535C197.715 50.3411 198.108 49.7995 198.596 49.5287C199.083 49.2308 199.692 49.0819 200.424 49.0819Z" fill="#006A4E"/>
<path d="M229.291 58.9934C229.644 58.9934 229.914 59.1559 230.104 59.4809C230.321 59.8058 230.429 60.2527 230.429 60.8213C230.429 61.9046 230.172 62.7441 229.657 63.3399C228.493 64.7751 227.22 65.9531 225.839 66.8739C224.485 67.7946 222.941 68.255 221.208 68.255C218.825 68.255 217.051 67.1718 215.887 65.0053C214.749 62.8389 214.18 60.036 214.18 56.5968C214.18 53.2929 214.6 49.5287 215.44 45.3041C216.306 41.0795 217.566 37.4507 219.217 34.4177C220.896 31.3846 222.887 29.8681 225.189 29.8681C226.489 29.8681 227.504 30.4774 228.235 31.6961C228.994 32.8876 229.373 34.6072 229.373 36.8549C229.373 40.0775 228.479 43.8147 226.692 48.0663C224.904 52.318 222.481 56.5291 219.421 60.6995C219.61 61.8098 219.922 62.6087 220.355 63.0961C220.788 63.5565 221.357 63.7867 222.061 63.7867C223.171 63.7867 224.146 63.4753 224.986 62.8524C225.825 62.2025 226.895 61.1057 228.195 59.5621C228.52 59.183 228.885 58.9934 229.291 58.9934ZM224.295 33.8896C223.672 33.8896 222.968 35.0134 222.183 37.2611C221.397 39.5088 220.707 42.2981 220.111 45.6291C219.515 48.96 219.19 52.1555 219.136 55.2156C221.059 52.0472 222.589 48.8788 223.726 45.7103C224.864 42.5148 225.432 39.6036 225.432 36.9768C225.432 34.9187 225.053 33.8896 224.295 33.8896Z" fill="#006A4E"/>
<path d="M231.745 68.255C230.066 68.255 228.726 67.6457 227.724 66.4271C226.722 65.2084 226.221 63.6107 226.221 61.6338C226.221 59.4673 226.722 57.4227 227.724 55.5C228.726 53.5502 230.053 51.993 231.705 50.8286C233.384 49.637 235.157 49.0412 237.026 49.0412C237.622 49.0412 238.014 49.1631 238.204 49.4068C238.421 49.6235 238.597 50.0297 238.732 50.6255C239.301 50.5171 239.897 50.463 240.519 50.463C241.846 50.463 242.51 50.9369 242.51 51.8847C242.51 52.4534 242.307 53.8074 241.901 55.9468C241.278 59.0611 240.966 61.2276 240.966 62.4462C240.966 62.8524 241.061 63.1774 241.251 63.4211C241.467 63.6648 241.738 63.7867 242.063 63.7867C242.578 63.7867 243.2 63.4617 243.932 62.8118C244.663 62.1348 245.651 61.0515 246.897 59.5621C247.222 59.183 247.587 58.9934 247.994 58.9934C248.346 58.9934 248.617 59.1559 248.806 59.4809C249.023 59.8058 249.131 60.2527 249.131 60.8213C249.131 61.9046 248.874 62.7441 248.359 63.3399C247.249 64.721 246.071 65.8854 244.825 66.8333C243.58 67.7811 242.374 68.255 241.21 68.255C240.316 68.255 239.49 67.9571 238.732 67.3613C238.001 66.7385 237.446 65.899 237.067 64.8428C235.658 67.1176 233.885 68.255 231.745 68.255ZM233.208 64.1523C233.803 64.1523 234.372 63.8002 234.914 63.0961C235.455 62.392 235.848 61.4577 236.092 60.2933L237.595 52.819C236.457 52.8461 235.401 53.2794 234.426 54.1189C233.478 54.9313 232.72 56.0145 232.151 57.3686C231.583 58.7226 231.298 60.1579 231.298 61.6744C231.298 62.5139 231.461 63.1367 231.786 63.543C232.138 63.9492 232.612 64.1523 233.208 64.1523Z" fill="#006A4E"/>
<path d="M253.873 68.255C251.165 68.255 249.188 67.2124 247.942 65.1272C246.723 63.042 246.114 60.0225 246.114 56.0687C246.114 52.5753 246.547 48.784 247.414 44.6948C248.28 40.5785 249.54 37.0851 251.192 34.2146C252.871 31.3169 254.861 29.8681 257.163 29.8681C258.409 29.8681 259.411 30.4097 260.169 31.4929C260.927 32.5491 261.306 33.9302 261.306 35.6363C261.306 37.8569 260.887 40.064 260.047 42.2575C259.208 44.4511 257.813 46.7529 255.863 49.1631C257.19 49.2714 258.341 49.7183 259.316 50.5036C260.318 51.2889 261.076 52.3045 261.591 53.5502C262.132 54.7959 262.403 56.1499 262.403 57.6123C262.403 59.6433 261.997 61.4713 261.184 63.0961C260.399 64.721 259.356 65.9938 258.057 66.9145C256.757 67.8082 255.362 68.255 253.873 68.255ZM251.476 51.9253C253.263 48.6486 254.685 45.7645 255.741 43.2731C256.824 40.7545 257.366 38.5204 257.366 36.5706C257.366 35.704 257.258 35.0405 257.041 34.5801C256.851 34.1198 256.581 33.8896 256.229 33.8896C255.687 33.8896 255.091 34.702 254.441 36.3269C253.818 37.9246 253.236 40.1046 252.695 42.8668C252.153 45.6291 251.747 48.6486 251.476 51.9253ZM254.035 63.8679C254.956 63.8679 255.728 63.3669 256.351 62.3649C257 61.363 257.325 59.9006 257.325 57.9779C257.325 56.4884 257.055 55.3646 256.513 54.6063C255.971 53.8481 255.321 53.4689 254.563 53.4689C253.615 53.4689 252.816 53.9564 252.167 54.9313C251.517 55.9062 251.192 57.3279 251.192 59.1965C251.192 60.8213 251.462 62.0129 252.004 62.7712C252.546 63.5023 253.223 63.8679 254.035 63.8679Z" fill="#006A4E"/>
</svg>
