<svg width="240" height="364" viewBox="0 0 240 364" fill="none" xmlns="http://www.w3.org/2000/svg">
<circle cx="58.5829" cy="304.827" r="58.4891" fill="#006A4E"/>
<path fill-rule="evenodd" clip-rule="evenodd" d="M239.907 182C239.907 214.303 213.72 240.489 181.417 240.489C181.416 240.489 181.415 240.489 181.414 240.489H64.4357V240.2C62.5107 240.391 60.5582 240.489 58.5829 240.489C26.2802 240.489 0.09375 214.303 0.09375 182C0.09375 149.697 26.2802 123.511 58.5829 123.511C60.5582 123.511 62.5107 123.609 64.4357 123.8V123.511H181.414C181.415 123.511 181.416 123.511 181.417 123.511C213.72 123.511 239.907 149.697 239.907 182Z" fill="#006A4E"/>
<path fill-rule="evenodd" clip-rule="evenodd" d="M239.704 275.2C239.704 259.049 226.611 245.956 210.46 245.956C194.308 245.956 181.215 259.049 181.215 275.2C181.215 291.352 168.122 304.445 151.97 304.445C135.819 304.445 122.726 317.538 122.726 333.69C122.726 349.841 135.819 362.934 151.97 362.934H189.704C217.318 362.934 239.704 340.548 239.704 312.934V275.2Z" fill="#006A4E"/>
<path fill-rule="evenodd" clip-rule="evenodd" d="M58.5829 117.662C90.8855 117.662 117.072 91.4755 117.072 59.1728C117.072 26.8702 90.8855 0.683716 58.5829 0.683716C26.2802 0.683716 0.09375 26.8702 0.09375 59.1728C0.09375 91.4755 26.2802 117.662 58.5829 117.662ZM58.5877 80.1344C70.1643 80.1344 79.549 70.7497 79.549 59.1731C79.549 47.5965 70.1643 38.2118 58.5877 38.2118C47.0111 38.2118 37.6264 47.5965 37.6264 59.1731C37.6264 70.7497 47.0111 80.1344 58.5877 80.1344Z" fill="#006A4E"/>
<path fill-rule="evenodd" clip-rule="evenodd" d="M181.215 117.662C213.517 117.662 239.704 91.4755 239.704 59.1728C239.704 26.8702 213.517 0.683716 181.215 0.683716C148.912 0.683716 122.726 26.8702 122.726 59.1728C122.726 91.4755 148.912 117.662 181.215 117.662ZM181.22 80.1344C192.796 80.1344 202.181 70.7497 202.181 59.1731C202.181 47.5965 192.796 38.2118 181.22 38.2118C169.643 38.2118 160.258 47.5965 160.258 59.1731C160.258 70.7497 169.643 80.1344 181.22 80.1344Z" fill="#006A4E"/>
</svg>
